<?xml version="1.0" encoding="utf-8"?>
<!-- Generator: Adobe Illustrator 25.4.1, SVG Export Plug-In . SVG Version: 6.00 Build 0)  -->
<svg version="1.1" id="Logo" xmlns="http://www.w3.org/2000/svg" xmlns:xlink="http://www.w3.org/1999/xlink" x="0px" y="0px"
	 viewBox="0 0 127.5 144" style="enable-background:new 0 0 127.5 144;" xml:space="preserve">
<style type="text/css">
	.st0{fill:#C5CACB;}
	.st1{fill:#FFFFFF;}
	.st2{fill:#E3E7E6;}
</style>
<path class="st0" d="M63.8,144l58.2-33.6L99.6,97.5l-22.8,13.2c-0.6,0.3-1.4,0.1-1.7-0.5c-0.1-0.2-0.2-0.4-0.2-0.6V78.3
	c0-0.9,0.5-1.8,1.3-2.2l27.1-15.6c0.6-0.3,1.4-0.1,1.8,0.5c0.1,0.2,0.2,0.4,0.2,0.6v26.3l22.3,12.9V33.6L63.8,70.4V144z"/>
<path class="st1" d="M69.3,0v25.8l22.8,13.2c0.6,0.4,0.8,1.1,0.5,1.8c-0.1,0.2-0.3,0.3-0.5,0.5L65,56.8c-0.8,0.5-1.8,0.5-2.6,0
	L35.4,41.1c-0.6-0.4-0.8-1.2-0.4-1.8c0.1-0.2,0.3-0.3,0.4-0.4l22.8-13.2V0L0,33.6l63.8,36.8l63.8-36.8L69.3,0z"/>
<path class="st2" d="M50.7,110.7L27.9,97.5L5.6,110.4L63.8,144V70.4L0,33.6v67.2l22.3-12.9V61.5c0-0.7,0.6-1.3,1.3-1.3
	c0.2,0,0.4,0.1,0.6,0.2l27.1,15.6c0.8,0.5,1.3,1.3,1.3,2.2v31.3c0,0.7-0.6,1.3-1.3,1.3C51.1,110.9,50.9,110.8,50.7,110.7z"/>
</svg>
