<svg xmlns="http://www.w3.org/2000/svg" version="1.1" xmlns:xlink="http://www.w3.org/1999/xlink" xmlns:svgjs="http://svgjs.com/svgjs" width="1000" height="1000"><rect width="1000" height="1000" rx="500" ry="500" fill="#555555"></rect><g transform="matrix(0.8,0,0,0.8,99.99954166412351,100.05025749206538)"><svg xmlns="http://www.w3.org/2000/svg" version="1.1" xmlns:xlink="http://www.w3.org/1999/xlink" xmlns:svgjs="http://svgjs.com/svgjs" width="1000" height="1000"><svg id="Layer_1" data-name="Layer 1" xmlns="http://www.w3.org/2000/svg" viewBox="0 0 1000 1000"><defs><style>.cls-1{fill:#fff;}</style></defs><path class="cls-1" d="M485.82,2.73c19.26,0,37.25-1.26,55,.23,71.57,6,139.41,25.42,201.76,61.32C875.91,141.05,960.37,254.45,989.5,405.86c49.83,259-107.79,508.75-361.36,576.3-7.76,2.06-12.85.92-18.53-4.88-27.52-28.09-55.5-55.73-83.29-83.56-1.56-1.57-2.84-3.4-4.25-5.11,20.38-3.27,40.5-5.33,60-9.83C710.63,849.16,803.3,774,856,653.66c92.05-210-19-452.45-237.24-523-4.58-1.49-9.47-3.76-12.82-7.07Q547,65.2,488.48,6.35A38.51,38.51,0,0,1,485.82,2.73Z"></path><path class="cls-1" d="M473.92,111.75c-155.36,18.59-268.43,94.94-331,238.18-88,201.5,17.3,440.42,224.57,514.5a65.91,65.91,0,0,1,25.76,16.09c35.8,36.33,72,72.25,108.07,108.33,2.28,2.29,4.4,4.74,8.16,8.79-5.39.29-8.82.64-12.26.63C261.37,997.62,57.33,829.93,11.11,598.76-40.19,342.24,114.71,89.64,366,19.43c9.28-2.59,14.87-1.23,21.56,5.66C415.88,54.21,444.85,82.68,473.92,111.75Z"></path><path class="cls-1" d="M742.55,487.73c-13.93-104.51-66.65-177.94-166.2-212.44-120.89-41.9-253.19,20.58-301,139.19A60.1,60.1,0,0,1,263,433.25c-20.85,21.56-42.25,42.58-63.48,63.78-2.3,2.29-4.76,4.41-7.14,6.61l-3-.72c1.94-19.59,2-39.59,6.12-58.71C223,317.13,299.21,234,424.77,199.74,586.68,155.56,760,259.28,799.9,422.05c.74,3,.45,7.78-1.43,9.71C780.17,450.58,761.42,469,742.55,487.73Z"></path><path class="cls-1" d="M809.59,498.56c.93,36.47-4.34,69.54-16.06,101.19-43.28,117-126.79,187.88-249.8,206.74-152.51,23.4-296.47-70.82-341.08-218.36-3-9.91-1.54-16.32,6.15-23.44,16.6-15.36,32.18-31.83,48.95-48.6,1.9,12.53,3.24,24.13,5.47,35.56,18.88,96.86,97.15,174,193.4,190.87,118.44,20.73,231.44-45.09,272-158.35,1.21-3.37,2.58-7.1,5-9.56C758.18,549.75,783,525.12,809.59,498.56Z"></path><path class="cls-1" d="M638.5,524.78c-3.32,78.27-64.23,137.06-139.83,136.35C428.05,660.47,365,602,362.39,535c-.32-8.07,1.52-11.26,10.17-11.24,85.57.24,171.14.13,256.71.18C632.17,524,635.07,524.46,638.5,524.78Z"></path><path class="cls-1" d="M416.67,425.33c-.06-26.2,9.95-46.2,28.08-61.83,24.32-21,52.62-26.67,83-16.23,30,10.32,48.12,32.28,55.32,63,3.09,13.24,1.32,15-12.16,15H416.67Z"></path></svg></svg></g></svg>